Coordinates
version=1
nRows=17
nColumns=33
inDegrees=yes

Units are S.I. units (second, meters, Newtons, ...)
Angles are in degrees.

endheader
time	ground_thorax_rot_x	ground_thorax_rot_y	ground_thorax_rot_z	ground_thorax_tx	ground_thorax_ty	ground_thorax_tz	clav_prot_r	clav_elev_r	scapula_abduction_r	scapula_elevation_r	scapula_upward_rot_r	scapula_winging_r	shoulder_elv_r	plane_of_elev_r	axial_rot_r	elbow_flexion_r	pro_sup_r	wrist_flex_r	wrist_dev_r	clav_prot_l	clav_elev_l	scapula_abduction_l	scapula_elevation_l	scapula_upward_rot_l	scapula_winging_l	shoulder_elv_l	plane_of_elev_l	axial_rot_l	elbow_flexion_l	pro_sup_l	wrist_flex_l	wrist_dev_l
      3.60000000	    -39.21083352	    -15.33421425	     18.04894616	   -136.46051218	    826.37341978	     12.43706715	      8.89662937	    -45.00000000	     42.78022381	    -45.00000000	    -33.76110346	  -2259.59091642	  -2084.24546777	     33.40072845	     48.52090723	   1453.02450061	     31.56980775	     19.30373174	      6.63718107	     16.25413644	     38.09458730	    -40.36597872	    -45.00000000	    -45.00000000	     81.80489647	  -4228.11171376	     19.03953050	   -179.99999979	     -9.49326662	   -229.19354045	      7.27991665	    -16.85193719
      3.61000000	    -39.30586960	    -14.84096756	     17.54628247	   -141.37589143	    828.20885927	     12.17996657	      8.85674049	    -45.00000000	     42.66760653	    -45.00000000	    -33.74497618	  -2259.80791365	  -2084.07159247	     33.39994867	     48.78774984	   1453.15056148	     32.67473246	     19.19853731	      6.45084537	     16.13910750	     38.14612795	    -40.28932005	    -45.00000000	    -45.00000000	     82.13402093	  -4227.95066926	     19.02435996	   -179.99999979	     -9.63321742	   -231.30569927	      7.44514941	    -16.75028827
      3.62000000	    -39.32856619	    -14.34105641	     17.17239564	   -146.25953501	    829.92419062	     11.90802485	      8.84210419	    -45.00000000	     42.61636195	    -45.00000000	    -33.95020754	  -2260.05521632	  -2083.86071739	     33.37003304	     49.30521575	   1453.24298676	     33.91334471	     19.07572289	      6.25830601	     16.01534030	     38.10607123	    -40.19618588	    -45.00000000	    -45.00000000	     82.40787066	  -4227.85796875	     18.96018991	   -179.99999979	     -9.82171295	   -233.46967151	      7.56982939	    -16.64943110
      3.63000000	    -39.32230969	    -13.96102184	     16.85243619	   -151.10375725	    831.51353148	     11.61809770	      8.90087487	    -45.00000000	     42.49340477	    -45.00000000	    -34.47485327	  -2260.24829738	  -2083.65338643	     33.44974329	     49.69600156	   1453.36551556	     35.31529063	     18.96995232	      6.08995551	     15.94374306	     38.03610746	    -39.98240434	    -45.00000000	    -45.00000000	     82.65309230	  -4227.77174110	     18.86573593	   -179.99999979	    -10.05069890	   -235.70048133	      7.66320227	    -16.54098070
      3.64000000	    -39.28844585	    -13.63065435	     16.76124543	   -155.89314377	    832.97513162	     11.31537586	      9.09031914	    -45.00000000	     42.28638707	    -45.00000000	    -35.48142983	  -2260.44040520	  -2083.45536465	     33.48069521	     49.89069744	   1453.52986748	     37.12842235	     18.78124715	      5.79597301	     15.75058538	     38.16195695	    -39.84910311	    -45.00000000	    -45.00000000	     82.78650110	  -4227.77580790	     18.61232326	   -179.99999979	    -10.29759352	   -238.31418418	      7.82073142	    -16.22746582
      3.65000000	    -39.28268550	    -13.14558168	     16.38777419	   -160.61557731	    834.31027857	     11.00594921	      9.05898257	    -45.00000000	     42.19292472	    -45.00000000	    -35.72685200	  -2260.65456824	  -2083.32727834	     33.45750944	     50.17317226	   1453.66033879	     39.00984419	     18.74788192	      5.72140743	     15.68161505	     38.05959112	    -39.68061217	    -45.00000000	    -45.00000000	     82.98852255	  -4227.73454585	     18.59600483	   -179.99999979	    -10.41650794	   -240.44516257	      7.89315689	    -16.03022037
      3.66000000	    -39.27413779	    -12.58133779	     15.96346043	   -165.26626521	    835.52938874	     10.70039490	      8.94453459	    -45.00000000	     42.14830352	    -45.00000000	    -35.72704614	  -2260.88374191	  -2083.25167708	     33.39223406	     50.80874608	   1453.76334023	     40.81067045	     18.76932463	      5.71669215	     15.68421092	     37.83904431	    -39.43301227	    -45.00000000	    -45.00000000	     83.18284020	  -4227.67806254	     18.71768915	   -179.99999979	    -10.42615133	   -242.04384663	      7.88832693	    -15.95491199
      3.67000000	    -39.22837672	    -12.45720907	     16.04764854	   -169.83640060	    836.64025352	     10.40358894	      9.33051699	    -45.00000000	     41.72170607	    -45.00000000	    -37.80353761	  -2260.91141683	  -2083.03856511	     33.61579263	     50.36802089	   1454.04966376	     43.83150000	     18.39780850	      5.22431831	     15.26307068	     38.25686567	    -39.15405609	    -45.00000000	    -45.00000000	     83.39662169	  -4227.73348180	     18.47990242	   -179.99999979	    -10.71846985	   -244.23565553	      8.15329283	    -15.29296776
      3.68000000	    -39.23885994	    -11.86669142	     15.64022501	   -174.31185144	    837.65003192	     10.11963471	      9.17371027	    -45.00000000	     41.74165419	    -45.00000000	    -37.55196910	  -2261.20500408	  -2083.06275980	     33.46981603	     51.35547601	   1454.31056234	     46.36016898	     18.51190756	      5.25450925	     15.39640899	     37.87042525	    -39.00500367	    -45.00000000	    -45.00000000	     83.51796434	  -4227.76903271	     18.45107764	   -179.99999979	    -10.67581173	   -245.46215119	      8.06368396	    -15.32312452
      3.69000000	    -39.25679845	    -11.36179577	     15.29601469	   -178.67277452	    838.57045289	      9.85553448	      9.07702318	    -45.00000000	     41.68244139	    -45.00000000	    -37.66139880	  -2261.38852222	  -2083.11854192	     33.33998575	     52.27925857	   1454.57615525	     48.74599143	     18.52373583	      5.18361239	     15.37411750	     37.69422603	    -38.73934637	    -45.00000000	    -45.00000000	     83.64444873	  -4227.79880123	     18.52404170	   -179.99999979	    -10.58787312	   -246.20786990	      8.06898716	    -15.20173021
      3.70000000	    -39.21307180	    -11.20841987	     15.36629290	   -182.90226352	    839.41270419	      9.61706083	      9.32817836	    -45.00000000	     41.33511819	    -45.00000000	    -39.16812180	  -2261.51999165	  -2083.01160125	     33.49984774	     52.62322190	   1455.02464538	     51.98171307	     18.22498050	      4.82269729	     15.19827176	     37.85081110	    -38.47855394	    -45.00000000	    -45.00000000	     83.76742656	  -4227.93661964	     18.24616392	   -179.99999979	    -10.66395295	   -246.75354292	      8.19017668	    -14.87855804
      3.71000000	    -39.25679676	    -10.65745815	     14.94180354	   -186.98321485	    840.18487495	      9.40784348	      9.25191059	    -45.00000000	     41.13149892	    -45.00000000	    -40.41364901	  -2261.48634471	  -2083.90594484	     32.43748471	     75.08609137	   1464.16385592	    162.88382865	     12.44801774	      4.96842498	     14.99977577	     37.87040866	    -38.12969178	    -45.00000000	    -45.00000000	     83.84096123	  -4227.93054595	     18.33740538	   -179.99999979	    -10.71470378	   -248.66202367	      8.41422521	    -14.07456802
      3.72000000	    -39.23471939	    -10.24254245	     14.73471373	   -190.90094893	    840.89996815	      9.22884613	      9.18726582	    -45.00000000	     41.10450232	    -45.00000000	    -39.71650316	  -2261.73971624	  -2084.03430343	     32.13551402	     77.49908189	   1464.15689033	    162.40675837	     12.61925277	      4.98375006	     15.02932254	     37.60113537	    -37.89786321	    -45.00000000	    -45.00000000	     83.94691285	  -4228.17374158	     18.33792074	   -179.99999979	    -10.54158615	   -248.18909670	      8.30950853	    -14.37722964
      3.73000000	    -39.27735930	     -9.99874200	     14.68020962	   -194.64590832	    841.55691690	      9.07487941	      9.21617899	    -45.00000000	     40.92876575	    -45.00000000	    -40.37640037	  -2261.87631422	  -2084.14446920	     32.05073616	     78.39429273	   1464.22876117	    162.29093056	     12.61425539	      5.04634375	     14.95851989	     37.56752237	    -37.65452770	    -45.00000000	    -45.00000000	     84.04121528	  -4228.32859205	     18.18464016	   -179.99999979	    -10.30170491	   -247.19853424	      8.40202320	    -14.31748292
      3.74000000	    -39.24979443	     -9.67160749	     14.58012234	   -198.20429841	    842.15558200	      8.93696929	      9.23612208	    -45.00000000	     40.74578104	    -45.00000000	    -40.99029476	  -2262.01090575	  -2084.11544447	     32.03512153	     78.97912956	   1464.32140216	    162.18611861	     12.61438697	      4.99882785	     14.92967814	     37.44360424	    -37.35910956	    -45.00000000	    -45.00000000	     84.13977311	  -4228.51785572	     18.21114011	   -179.99999979	    -10.02808732	   -245.80622049	      8.50552597	    -14.32177005
      3.75000000	    -39.26055538	     -9.46298074	     14.60093041	   -201.57240059	    842.69453983	      8.80287537	      9.28665721	    -45.00000000	     40.53732418	    -45.00000000	    -41.82116374	  -2262.14145482	  -2084.18900991	     31.97105916	     79.44471165	   1464.37844100	    162.05313825	     12.60252174	      5.03214865	     14.83863126	     37.47354445	    -37.12346321	    -45.00000000	    -45.00000000	     84.19002403	  -4228.76039389	     18.05505165	   -179.99999979	     -9.71996194	   -243.90819945	      8.65271505	    -14.34519293
      3.76000000	    -39.27687648	     -9.27766229	     14.57727459	   -204.73167602	    843.16609924	      8.65875320	      9.29663010	    -45.00000000	     40.39317207	    -45.00000000	    -42.49244632	  -2262.23742476	  -2084.21412651	     31.93842801	     79.81461925	   1464.54932050	    161.87865352	     12.58871229	      4.95991322	     14.82148966	     37.34029006	    -36.90715588	    -45.00000000	    -45.00000000	     84.34368446	  -4229.00671835	     17.98011295	   -179.99999979	     -9.31901847	   -241.67607246	      8.77480620	    -14.47144634
